<?xml version="1.0" encoding="UTF-8" standalone="no"?><svg xmlns="http://www.w3.org/2000/svg" xmlns:xlink="http://www.w3.org/1999/xlink" contentScriptType="application/ecmascript" contentStyleType="text/css" height="336px" preserveAspectRatio="none" style="width:432px;height:336px;" version="1.1" viewBox="0 0 432 336" width="432px" zoomAndPan="magnify"><defs><filter height="300%" id="fasqx29pjwrti" width="300%" x="-1" y="-1"><feGaussianBlur result="blurOut" stdDeviation="2.0"/><feColorMatrix in="blurOut" result="blurOut2" type="matrix" values="0 0 0 0 0 0 0 0 0 0 0 0 0 0 0 0 0 0 .4 0"/><feOffset dx="4.0" dy="4.0" in="blurOut2" result="blurOut3"/><feBlend in="SourceGraphic" in2="blurOut3" mode="normal"/></filter></defs><g><!--cluster Website--><rect fill="#FFFFFF" filter="url(#fasqx29pjwrti)" height="301" style="stroke: #000000; stroke-width: 1.5;" width="167" x="132" y="24"/><text fill="#000000" font-family="sans-serif" font-size="14" font-weight="bold" lengthAdjust="spacingAndGlyphs" textLength="57" x="187" y="40.5332">Website</text><ellipse cx="215.3977" cy="159.8795" fill="#FEFECE" filter="url(#fasqx29pjwrti)" rx="67.3977" ry="15.8795" style="stroke: #A80036; stroke-width: 1.5;"/><text fill="#000000" font-family="sans-serif" font-size="14" lengthAdjust="spacingAndGlyphs" textLength="94" x="168.3977" y="165.1842">Create Recipie</text><ellipse cx="215.533" cy="226.9517" fill="#FEFECE" filter="url(#fasqx29pjwrti)" rx="56.033" ry="15.4517" style="stroke: #A80036; stroke-width: 1.5;"/><text fill="#000000" font-family="sans-serif" font-size="14" lengthAdjust="spacingAndGlyphs" textLength="75" x="178.033" y="232.2564">Edit Recipie</text><ellipse cx="215.6715" cy="293.2343" fill="#FEFECE" filter="url(#fasqx29pjwrti)" rx="66.6715" ry="15.7343" style="stroke: #A80036; stroke-width: 1.5;"/><text fill="#000000" font-family="sans-serif" font-size="14" lengthAdjust="spacingAndGlyphs" textLength="92" x="169.6715" y="298.539">Delete Recipie</text><ellipse cx="215.3614" cy="75.9517" fill="#FEFECE" filter="url(#fasqx29pjwrti)" rx="58.8614" ry="15.4517" style="stroke: #A80036; stroke-width: 1.5;"/><text fill="#000000" font-family="sans-serif" font-size="14" lengthAdjust="spacingAndGlyphs" textLength="79" x="175.8614" y="81.2564">Authenticate</text><!--entity user--><ellipse cx="21" cy="194.5" fill="#FEFECE" filter="url(#fasqx29pjwrti)" rx="8" ry="8" style="stroke: #A80036; stroke-width: 2.0;"/><path d="M21,202.5 L21,229.5 M8,210.5 L34,210.5 M21,229.5 L8,244.5 M21,229.5 L34,244.5 " fill="none" filter="url(#fasqx29pjwrti)" style="stroke: #A80036; stroke-width: 2.0;"/><text fill="#000000" font-family="sans-serif" font-size="14" lengthAdjust="spacingAndGlyphs" textLength="28" x="7" y="266.0332">user</text><!--entity backend--><path d="M346,213.5 C346,203.5 383,203.5 383,203.5 C383,203.5 420,203.5 420,213.5 L420,240.1094 C420,250.1094 383,250.1094 383,250.1094 C383,250.1094 346,250.1094 346,240.1094 L346,213.5 " fill="#FEFECE" filter="url(#fasqx29pjwrti)" style="stroke: #000000; stroke-width: 1.5;"/><path d="M346,213.5 C346,223.5 383,223.5 383,223.5 C383,223.5 420,223.5 420,213.5 " fill="none" style="stroke: #000000; stroke-width: 1.5;"/><text fill="#000000" font-family="sans-serif" font-size="14" lengthAdjust="spacingAndGlyphs" textLength="54" x="356" y="242.0332">backend</text><!--link user to Create Recipie--><path d="M36.3305,218.607 C44.774,213.892 55.774,208.142 66,204 C99.1466,190.574 137.934,179.222 167.554,171.413 " fill="none" id="user-Create Recipie" style="stroke: #A80036; stroke-width: 1.0;"/><!--link Create Recipie to backend--><path d="M253.227,173.275 C269.745,179.38 289.436,186.843 307,194 C319.779,199.207 333.641,205.206 345.932,210.649 " fill="none" id="Create Recipie-backend" style="stroke: #A80036; stroke-width: 1.0;"/><!--link user to Edit Recipie--><path d="M36.155,227 C61.769,227 117.073,227 159.35,227 " fill="none" id="user-Edit Recipie" style="stroke: #A80036; stroke-width: 1.0;"/><!--link Edit Recipie to backend--><path d="M271.609,227 C296.057,227 324.142,227 345.866,227 " fill="none" id="Edit Recipie-backend" style="stroke: #A80036; stroke-width: 1.0;"/><!--link user to Delete Recipie--><path d="M36.155,231.853 C65.5894,241.9449 134.231,265.4791 177.257,280.2308 " fill="none" id="user-Delete Recipie" style="stroke: #A80036; stroke-width: 1.0;"/><!--link Delete Recipie to backend--><path d="M253.253,280.2086 C269.777,274.3016 289.465,267.0461 307,260 C319.804,254.8551 333.672,248.8712 345.961,243.4229 " fill="none" id="Delete Recipie-backend" style="stroke: #A80036; stroke-width: 1.0;"/><!--link Create Recipie to Authenticate--><path d="M215.5,143.804 C215.5,130.387 215.5,111.233 215.5,96.703 " fill="none" id="Create Recipie-&gt;Authenticate" style="stroke: #A80036; stroke-width: 1.0;"/><polygon fill="#A80036" points="215.5,91.578,211.5,100.578,215.5,96.578,219.5,100.578,215.5,91.578" style="stroke: #A80036; stroke-width: 1.0;"/><text fill="#000000" font-family="sans-serif" font-size="13" lengthAdjust="spacingAndGlyphs" textLength="48" x="179.5" y="123.2451">Includes</text><!--link Edit Recipie to Authenticate--><path d="M170.31,217.717 C154.198,212.596 136.872,204.79 124,193 C89.5514,161.447 55.4588,130.349 86,95 C103.3396,74.931 131.788,69.212 157.61,68.931 " fill="none" id="Edit Recipie-&gt;Authenticate" style="stroke: #A80036; stroke-width: 1.0;"/><polygon fill="#A80036" points="162.736,68.944,153.7463,64.9209,157.736,68.9311,153.7257,72.9208,162.736,68.944" style="stroke: #A80036; stroke-width: 1.0;"/><text fill="#000000" font-family="sans-serif" font-size="13" lengthAdjust="spacingAndGlyphs" textLength="48" x="67" y="109.4951">Includes</text><!--link Delete Recipie to Authenticate--><path d="M163.935,283.1593 C149.494,278.2517 134.808,270.9241 124,260 C82.5626,218.117 53.8068,182.344 86,133 C102.4897,107.726 132.977,93.582 160.229,85.707 " fill="none" id="Delete Recipie-&gt;Authenticate" style="stroke: #A80036; stroke-width: 1.0;"/><polygon fill="#A80036" points="165.276,84.308,155.5345,82.8575,160.4577,85.6436,157.6716,90.5668,165.276,84.308" style="stroke: #A80036; stroke-width: 1.0;"/><text fill="#000000" font-family="sans-serif" font-size="13" lengthAdjust="spacingAndGlyphs" textLength="48" x="67" y="147.4951">Includes</text><!--
@startuml Recipie Editing

left to right direction

skinparam packageStyle rectangle

actor user
database backend



rectangle Website{

        user - - (Create Recipie)
        (Create Recipie) - - backend
        user - - (Edit Recipie)
        (Edit Recipie) - - backend
        user - - (Delete Recipie)
        (Delete Recipie) - - backend

        (Create Recipie) -> (Authenticate) : Includes
        (Edit Recipie) -> (Authenticate) : Includes
        (Delete Recipie) -> (Authenticate) : Includes
}
@enduml

PlantUML version 1.2019.09(Mon Aug 26 12:19:51 EDT 2019)
(GPL source distribution)
Java Runtime: Java(TM) SE Runtime Environment
JVM: Java HotSpot(TM) 64-Bit Server VM
Java Version: 1.8.0_221-b11
Operating System: Windows 10
OS Version: 10.0
Default Encoding: Cp1252
Language: en
Country: US
--></g></svg>