<?xml version="1.0" encoding="UTF-8" standalone="no"?><svg xmlns="http://www.w3.org/2000/svg" xmlns:xlink="http://www.w3.org/1999/xlink" contentScriptType="application/ecmascript" contentStyleType="text/css" height="80px" preserveAspectRatio="none" style="width:293px;height:80px;" version="1.1" viewBox="0 0 293 80" width="293px" zoomAndPan="magnify"><defs><filter height="300%" id="fswjrjld2oq40" width="300%" x="-1" y="-1"><feGaussianBlur result="blurOut" stdDeviation="2.0"/><feColorMatrix in="blurOut" result="blurOut2" type="matrix" values="0 0 0 0 0 0 0 0 0 0 0 0 0 0 0 0 0 0 .4 0"/><feOffset dx="4.0" dy="4.0" in="blurOut2" result="blurOut3"/><feBlend in="SourceGraphic" in2="blurOut3" mode="normal"/></filter></defs><g><!--class DeleteRequest--><rect fill="#FEFECE" filter="url(#fswjrjld2oq40)" height="61.8359" id="DeleteRequest" style="stroke: #A80036; stroke-width: 1.5;" width="115" x="6" y="8"/><ellipse cx="21" cy="24" fill="#ADD1B2" rx="11" ry="11" style="stroke: #A80036; stroke-width: 1.0;"/><path d="M23.7656,19.875 Q23.9219,19.6563 24.1094,19.5469 Q24.2969,19.4375 24.5156,19.4375 Q24.8906,19.4375 25.125,19.6953 Q25.3594,19.9531 25.3594,20.5625 L25.3594,22.0156 Q25.3594,22.625 25.125,22.8906 Q24.8906,23.1563 24.5156,23.1563 Q24.1719,23.1563 23.9688,22.9531 Q23.7656,22.7656 23.6563,22.25 Q23.6094,21.8906 23.4219,21.7031 Q23.0938,21.3281 22.4844,21.1094 Q21.875,20.8906 21.25,20.8906 Q20.4844,20.8906 19.8516,21.2188 Q19.2188,21.5469 18.7266,22.2969 Q18.2344,23.0469 18.2344,24.0781 L18.2344,25.1719 Q18.2344,26.4063 19.125,27.2266 Q20.0156,28.0469 21.6094,28.0469 Q22.5469,28.0469 23.2031,27.7969 Q23.5938,27.6406 24.0156,27.2031 Q24.2813,26.9375 24.4297,26.8594 Q24.5781,26.7813 24.7813,26.7813 Q25.1094,26.7813 25.3672,27.0391 Q25.625,27.2969 25.625,27.6406 Q25.625,27.9844 25.2813,28.3906 Q24.7813,28.9688 23.9844,29.2969 Q22.9063,29.75 21.6094,29.75 Q20.0938,29.75 18.8906,29.125 Q17.9063,28.625 17.2188,27.5547 Q16.5313,26.4844 16.5313,25.2031 L16.5313,24.0469 Q16.5313,22.7188 17.1484,21.5703 Q17.7656,20.4219 18.8594,19.8047 Q19.9531,19.1875 21.1875,19.1875 Q21.9219,19.1875 22.5703,19.3516 Q23.2188,19.5156 23.7656,19.875 Z "/><text fill="#000000" font-family="sans-serif" font-size="12" lengthAdjust="spacingAndGlyphs" textLength="83" x="35" y="28.9102">DeleteRequest</text><line style="stroke: #A80036; stroke-width: 1.5;" x1="7" x2="120" y1="40" y2="40"/><text fill="#000000" font-family="sans-serif" font-size="11" lengthAdjust="spacingAndGlyphs" textLength="61" x="12" y="55.4189">recipieID : int</text><line style="stroke: #A80036; stroke-width: 1.5;" x1="7" x2="120" y1="61.8359" y2="61.8359"/><!--class DeleteResponse--><rect fill="#FEFECE" filter="url(#fswjrjld2oq40)" height="61.8359" id="DeleteResponse" style="stroke: #A80036; stroke-width: 1.5;" width="126" x="156.5" y="8"/><ellipse cx="171.5" cy="24" fill="#ADD1B2" rx="11" ry="11" style="stroke: #A80036; stroke-width: 1.0;"/><path d="M174.2656,19.875 Q174.4219,19.6563 174.6094,19.5469 Q174.7969,19.4375 175.0156,19.4375 Q175.3906,19.4375 175.625,19.6953 Q175.8594,19.9531 175.8594,20.5625 L175.8594,22.0156 Q175.8594,22.625 175.625,22.8906 Q175.3906,23.1563 175.0156,23.1563 Q174.6719,23.1563 174.4688,22.9531 Q174.2656,22.7656 174.1563,22.25 Q174.1094,21.8906 173.9219,21.7031 Q173.5938,21.3281 172.9844,21.1094 Q172.375,20.8906 171.75,20.8906 Q170.9844,20.8906 170.3516,21.2188 Q169.7188,21.5469 169.2266,22.2969 Q168.7344,23.0469 168.7344,24.0781 L168.7344,25.1719 Q168.7344,26.4063 169.625,27.2266 Q170.5156,28.0469 172.1094,28.0469 Q173.0469,28.0469 173.7031,27.7969 Q174.0938,27.6406 174.5156,27.2031 Q174.7813,26.9375 174.9297,26.8594 Q175.0781,26.7813 175.2813,26.7813 Q175.6094,26.7813 175.8672,27.0391 Q176.125,27.2969 176.125,27.6406 Q176.125,27.9844 175.7813,28.3906 Q175.2813,28.9688 174.4844,29.2969 Q173.4063,29.75 172.1094,29.75 Q170.5938,29.75 169.3906,29.125 Q168.4063,28.625 167.7188,27.5547 Q167.0313,26.4844 167.0313,25.2031 L167.0313,24.0469 Q167.0313,22.7188 167.6484,21.5703 Q168.2656,20.4219 169.3594,19.8047 Q170.4531,19.1875 171.6875,19.1875 Q172.4219,19.1875 173.0703,19.3516 Q173.7188,19.5156 174.2656,19.875 Z "/><text fill="#000000" font-family="sans-serif" font-size="12" lengthAdjust="spacingAndGlyphs" textLength="94" x="185.5" y="28.9102">DeleteResponse</text><line style="stroke: #A80036; stroke-width: 1.5;" x1="157.5" x2="281.5" y1="40" y2="40"/><text fill="#000000" font-family="sans-serif" font-size="11" lengthAdjust="spacingAndGlyphs" textLength="71" x="162.5" y="55.4189">success : bool</text><line style="stroke: #A80036; stroke-width: 1.5;" x1="157.5" x2="281.5" y1="61.8359" y2="61.8359"/><!--
@startuml Delete
class DeleteRequest{
    recipieID : int
}

class DeleteResponse{
    success : bool
}
@enduml

PlantUML version 1.2019.09(Mon Aug 26 12:19:51 EDT 2019)
(GPL source distribution)
Java Runtime: Java(TM) SE Runtime Environment
JVM: Java HotSpot(TM) 64-Bit Server VM
Java Version: 9.0.4+11
Operating System: Windows 10
OS Version: 10.0
Default Encoding: Cp1252
Language: en
Country: US
--></g></svg>