<?xml version="1.0" encoding="UTF-8" standalone="no"?><svg xmlns="http://www.w3.org/2000/svg" xmlns:xlink="http://www.w3.org/1999/xlink" contentScriptType="application/ecmascript" contentStyleType="text/css" height="94px" preserveAspectRatio="none" style="width:274px;height:94px;" version="1.1" viewBox="0 0 274 94" width="274px" zoomAndPan="magnify"><defs><filter height="300%" id="ff2chhuzyde1h" width="300%" x="-1" y="-1"><feGaussianBlur result="blurOut" stdDeviation="2.0"/><feColorMatrix in="blurOut" result="blurOut2" type="matrix" values="0 0 0 0 0 0 0 0 0 0 0 0 0 0 0 0 0 0 .4 0"/><feOffset dx="4.0" dy="4.0" in="blurOut2" result="blurOut3"/><feBlend in="SourceGraphic" in2="blurOut3" mode="normal"/></filter></defs><g><!--class OpenReqest--><rect fill="#FEFECE" filter="url(#ff2chhuzyde1h)" height="61.8359" id="OpenReqest" style="stroke: #A80036; stroke-width: 1.5;" width="102" x="6" y="15"/><ellipse cx="21" cy="31" fill="#ADD1B2" rx="11" ry="11" style="stroke: #A80036; stroke-width: 1.0;"/><path d="M23.7656,26.875 Q23.9219,26.6563 24.1094,26.5469 Q24.2969,26.4375 24.5156,26.4375 Q24.8906,26.4375 25.125,26.6953 Q25.3594,26.9531 25.3594,27.5625 L25.3594,29.0156 Q25.3594,29.625 25.125,29.8906 Q24.8906,30.1563 24.5156,30.1563 Q24.1719,30.1563 23.9688,29.9531 Q23.7656,29.7656 23.6563,29.25 Q23.6094,28.8906 23.4219,28.7031 Q23.0938,28.3281 22.4844,28.1094 Q21.875,27.8906 21.25,27.8906 Q20.4844,27.8906 19.8516,28.2188 Q19.2188,28.5469 18.7266,29.2969 Q18.2344,30.0469 18.2344,31.0781 L18.2344,32.1719 Q18.2344,33.4063 19.125,34.2266 Q20.0156,35.0469 21.6094,35.0469 Q22.5469,35.0469 23.2031,34.7969 Q23.5938,34.6406 24.0156,34.2031 Q24.2813,33.9375 24.4297,33.8594 Q24.5781,33.7813 24.7813,33.7813 Q25.1094,33.7813 25.3672,34.0391 Q25.625,34.2969 25.625,34.6406 Q25.625,34.9844 25.2813,35.3906 Q24.7813,35.9688 23.9844,36.2969 Q22.9063,36.75 21.6094,36.75 Q20.0938,36.75 18.8906,36.125 Q17.9063,35.625 17.2188,34.5547 Q16.5313,33.4844 16.5313,32.2031 L16.5313,31.0469 Q16.5313,29.7188 17.1484,28.5703 Q17.7656,27.4219 18.8594,26.8047 Q19.9531,26.1875 21.1875,26.1875 Q21.9219,26.1875 22.5703,26.3516 Q23.2188,26.5156 23.7656,26.875 Z "/><text fill="#000000" font-family="sans-serif" font-size="12" lengthAdjust="spacingAndGlyphs" textLength="70" x="35" y="35.9102">OpenReqest</text><line style="stroke: #A80036; stroke-width: 1.5;" x1="7" x2="107" y1="47" y2="47"/><text fill="#000000" font-family="sans-serif" font-size="11" lengthAdjust="spacingAndGlyphs" textLength="61" x="12" y="62.4189">recipieID : int</text><line style="stroke: #A80036; stroke-width: 1.5;" x1="7" x2="107" y1="68.8359" y2="68.8359"/><!--class OpenResponse--><rect fill="#FEFECE" filter="url(#ff2chhuzyde1h)" height="75.6719" id="OpenResponse" style="stroke: #A80036; stroke-width: 1.5;" width="120" x="143" y="8"/><ellipse cx="158" cy="24" fill="#ADD1B2" rx="11" ry="11" style="stroke: #A80036; stroke-width: 1.0;"/><path d="M160.7656,19.875 Q160.9219,19.6563 161.1094,19.5469 Q161.2969,19.4375 161.5156,19.4375 Q161.8906,19.4375 162.125,19.6953 Q162.3594,19.9531 162.3594,20.5625 L162.3594,22.0156 Q162.3594,22.625 162.125,22.8906 Q161.8906,23.1563 161.5156,23.1563 Q161.1719,23.1563 160.9688,22.9531 Q160.7656,22.7656 160.6563,22.25 Q160.6094,21.8906 160.4219,21.7031 Q160.0938,21.3281 159.4844,21.1094 Q158.875,20.8906 158.25,20.8906 Q157.4844,20.8906 156.8516,21.2188 Q156.2188,21.5469 155.7266,22.2969 Q155.2344,23.0469 155.2344,24.0781 L155.2344,25.1719 Q155.2344,26.4063 156.125,27.2266 Q157.0156,28.0469 158.6094,28.0469 Q159.5469,28.0469 160.2031,27.7969 Q160.5938,27.6406 161.0156,27.2031 Q161.2813,26.9375 161.4297,26.8594 Q161.5781,26.7813 161.7813,26.7813 Q162.1094,26.7813 162.3672,27.0391 Q162.625,27.2969 162.625,27.6406 Q162.625,27.9844 162.2813,28.3906 Q161.7813,28.9688 160.9844,29.2969 Q159.9063,29.75 158.6094,29.75 Q157.0938,29.75 155.8906,29.125 Q154.9063,28.625 154.2188,27.5547 Q153.5313,26.4844 153.5313,25.2031 L153.5313,24.0469 Q153.5313,22.7188 154.1484,21.5703 Q154.7656,20.4219 155.8594,19.8047 Q156.9531,19.1875 158.1875,19.1875 Q158.9219,19.1875 159.5703,19.3516 Q160.2188,19.5156 160.7656,19.875 Z "/><text fill="#000000" font-family="sans-serif" font-size="12" lengthAdjust="spacingAndGlyphs" textLength="88" x="172" y="28.9102">OpenResponse</text><line style="stroke: #A80036; stroke-width: 1.5;" x1="144" x2="262" y1="40" y2="40"/><text fill="#000000" font-family="sans-serif" font-size="11" lengthAdjust="spacingAndGlyphs" textLength="71" x="149" y="55.4189">success : bool</text><text fill="#000000" font-family="sans-serif" font-size="11" lengthAdjust="spacingAndGlyphs" textLength="80" x="149" y="69.2549">recepie : Recipie</text><line style="stroke: #A80036; stroke-width: 1.5;" x1="144" x2="262" y1="75.6719" y2="75.6719"/><!--
@startuml Open
class OpenReqest{
    recipieID : int
}

class OpenResponse{
    success : bool
    recepie : Recipie
}
@enduml

PlantUML version 1.2019.09(Mon Aug 26 12:19:51 EDT 2019)
(GPL source distribution)
Java Runtime: Java(TM) SE Runtime Environment
JVM: Java HotSpot(TM) 64-Bit Server VM
Java Version: 9.0.4+11
Operating System: Windows 10
OS Version: 10.0
Default Encoding: Cp1252
Language: en
Country: US
--></g></svg>