<?xml version="1.0" encoding="UTF-8" standalone="no"?><svg xmlns="http://www.w3.org/2000/svg" xmlns:xlink="http://www.w3.org/1999/xlink" contentScriptType="application/ecmascript" contentStyleType="text/css" height="150px" preserveAspectRatio="none" style="width:118px;height:150px;" version="1.1" viewBox="0 0 118 150" width="118px" zoomAndPan="magnify"><defs><filter height="300%" id="flp4jroqyowkb" width="300%" x="-1" y="-1"><feGaussianBlur result="blurOut" stdDeviation="2.0"/><feColorMatrix in="blurOut" result="blurOut2" type="matrix" values="0 0 0 0 0 0 0 0 0 0 0 0 0 0 0 0 0 0 .4 0"/><feOffset dx="4.0" dy="4.0" in="blurOut2" result="blurOut3"/><feBlend in="SourceGraphic" in2="blurOut3" mode="normal"/></filter></defs><g><!--class Recipie--><rect fill="#FEFECE" filter="url(#flp4jroqyowkb)" height="131.0156" id="Recipie" style="stroke: #A80036; stroke-width: 1.5;" width="101" x="6" y="8"/><ellipse cx="33.15" cy="24" fill="#ADD1B2" rx="11" ry="11" style="stroke: #A80036; stroke-width: 1.0;"/><path d="M35.9156,19.875 Q36.0719,19.6563 36.2594,19.5469 Q36.4469,19.4375 36.6656,19.4375 Q37.0406,19.4375 37.275,19.6953 Q37.5094,19.9531 37.5094,20.5625 L37.5094,22.0156 Q37.5094,22.625 37.275,22.8906 Q37.0406,23.1563 36.6656,23.1563 Q36.3219,23.1563 36.1188,22.9531 Q35.9156,22.7656 35.8063,22.25 Q35.7594,21.8906 35.5719,21.7031 Q35.2438,21.3281 34.6344,21.1094 Q34.025,20.8906 33.4,20.8906 Q32.6344,20.8906 32.0016,21.2188 Q31.3688,21.5469 30.8766,22.2969 Q30.3844,23.0469 30.3844,24.0781 L30.3844,25.1719 Q30.3844,26.4063 31.275,27.2266 Q32.1656,28.0469 33.7594,28.0469 Q34.6969,28.0469 35.3531,27.7969 Q35.7438,27.6406 36.1656,27.2031 Q36.4313,26.9375 36.5797,26.8594 Q36.7281,26.7813 36.9313,26.7813 Q37.2594,26.7813 37.5172,27.0391 Q37.775,27.2969 37.775,27.6406 Q37.775,27.9844 37.4313,28.3906 Q36.9313,28.9688 36.1344,29.2969 Q35.0563,29.75 33.7594,29.75 Q32.2438,29.75 31.0406,29.125 Q30.0563,28.625 29.3688,27.5547 Q28.6813,26.4844 28.6813,25.2031 L28.6813,24.0469 Q28.6813,22.7188 29.2984,21.5703 Q29.9156,20.4219 31.0094,19.8047 Q32.1031,19.1875 33.3375,19.1875 Q34.0719,19.1875 34.7203,19.3516 Q35.3688,19.5156 35.9156,19.875 Z "/><text fill="#000000" font-family="sans-serif" font-size="12" lengthAdjust="spacingAndGlyphs" textLength="42" x="49.85" y="28.9102">Recipie</text><line style="stroke: #A80036; stroke-width: 1.5;" x1="7" x2="106" y1="40" y2="40"/><text fill="#000000" font-family="sans-serif" font-size="11" lengthAdjust="spacingAndGlyphs" textLength="62" x="12" y="55.4189">name : string</text><text fill="#000000" font-family="sans-serif" font-size="11" lengthAdjust="spacingAndGlyphs" textLength="28" x="12" y="69.2549">id : int</text><text fill="#000000" font-family="sans-serif" font-size="11" lengthAdjust="spacingAndGlyphs" textLength="89" x="12" y="83.0908">description : string</text><text fill="#000000" font-family="sans-serif" font-size="11" lengthAdjust="spacingAndGlyphs" textLength="60" x="12" y="96.9268">body : string</text><text fill="#000000" font-family="sans-serif" font-size="11" lengthAdjust="spacingAndGlyphs" textLength="67" x="12" y="110.7627">author : string</text><text fill="#000000" font-family="sans-serif" font-size="11" lengthAdjust="spacingAndGlyphs" textLength="79" x="12" y="124.5986">ingrediants : int[]</text><line style="stroke: #A80036; stroke-width: 1.5;" x1="7" x2="106" y1="131.0156" y2="131.0156"/><!--
@startuml Recipie
class Recipie{
    name : string
    id : int
    description : string
    body : string
    author : string
    ingrediants : int[]
}
@enduml

PlantUML version 1.2019.09(Mon Aug 26 12:19:51 EDT 2019)
(GPL source distribution)
Java Runtime: Java(TM) SE Runtime Environment
JVM: Java HotSpot(TM) 64-Bit Server VM
Java Version: 9.0.4+11
Operating System: Windows 10
OS Version: 10.0
Default Encoding: Cp1252
Language: en
Country: US
--></g></svg>