<?xml version="1.0" encoding="UTF-8" standalone="no"?><svg xmlns="http://www.w3.org/2000/svg" xmlns:xlink="http://www.w3.org/1999/xlink" contentScriptType="application/ecmascript" contentStyleType="text/css" height="94px" preserveAspectRatio="none" style="width:275px;height:94px;" version="1.1" viewBox="0 0 275 94" width="275px" zoomAndPan="magnify"><defs><filter height="300%" id="fzpzmcy8el3av" width="300%" x="-1" y="-1"><feGaussianBlur result="blurOut" stdDeviation="2.0"/><feColorMatrix in="blurOut" result="blurOut2" type="matrix" values="0 0 0 0 0 0 0 0 0 0 0 0 0 0 0 0 0 0 .4 0"/><feOffset dx="4.0" dy="4.0" in="blurOut2" result="blurOut3"/><feBlend in="SourceGraphic" in2="blurOut3" mode="normal"/></filter></defs><g><!--class SaveRequest--><rect fill="#FEFECE" filter="url(#fzpzmcy8el3av)" height="61.8359" id="SaveRequest" style="stroke: #A80036; stroke-width: 1.5;" width="106" x="6" y="15"/><ellipse cx="21" cy="31" fill="#ADD1B2" rx="11" ry="11" style="stroke: #A80036; stroke-width: 1.0;"/><path d="M23.7656,26.875 Q23.9219,26.6563 24.1094,26.5469 Q24.2969,26.4375 24.5156,26.4375 Q24.8906,26.4375 25.125,26.6953 Q25.3594,26.9531 25.3594,27.5625 L25.3594,29.0156 Q25.3594,29.625 25.125,29.8906 Q24.8906,30.1563 24.5156,30.1563 Q24.1719,30.1563 23.9688,29.9531 Q23.7656,29.7656 23.6563,29.25 Q23.6094,28.8906 23.4219,28.7031 Q23.0938,28.3281 22.4844,28.1094 Q21.875,27.8906 21.25,27.8906 Q20.4844,27.8906 19.8516,28.2188 Q19.2188,28.5469 18.7266,29.2969 Q18.2344,30.0469 18.2344,31.0781 L18.2344,32.1719 Q18.2344,33.4063 19.125,34.2266 Q20.0156,35.0469 21.6094,35.0469 Q22.5469,35.0469 23.2031,34.7969 Q23.5938,34.6406 24.0156,34.2031 Q24.2813,33.9375 24.4297,33.8594 Q24.5781,33.7813 24.7813,33.7813 Q25.1094,33.7813 25.3672,34.0391 Q25.625,34.2969 25.625,34.6406 Q25.625,34.9844 25.2813,35.3906 Q24.7813,35.9688 23.9844,36.2969 Q22.9063,36.75 21.6094,36.75 Q20.0938,36.75 18.8906,36.125 Q17.9063,35.625 17.2188,34.5547 Q16.5313,33.4844 16.5313,32.2031 L16.5313,31.0469 Q16.5313,29.7188 17.1484,28.5703 Q17.7656,27.4219 18.8594,26.8047 Q19.9531,26.1875 21.1875,26.1875 Q21.9219,26.1875 22.5703,26.3516 Q23.2188,26.5156 23.7656,26.875 Z "/><text fill="#000000" font-family="sans-serif" font-size="12" lengthAdjust="spacingAndGlyphs" textLength="74" x="35" y="35.9102">SaveRequest</text><line style="stroke: #A80036; stroke-width: 1.5;" x1="7" x2="111" y1="47" y2="47"/><text fill="#000000" font-family="sans-serif" font-size="11" lengthAdjust="spacingAndGlyphs" textLength="76" x="12" y="62.4189">recipie : Recipie</text><line style="stroke: #A80036; stroke-width: 1.5;" x1="7" x2="111" y1="68.8359" y2="68.8359"/><!--class SaveResponse--><rect fill="#FEFECE" filter="url(#fzpzmcy8el3av)" height="75.6719" id="SaveResponse" style="stroke: #A80036; stroke-width: 1.5;" width="117" x="147.5" y="8"/><ellipse cx="162.5" cy="24" fill="#ADD1B2" rx="11" ry="11" style="stroke: #A80036; stroke-width: 1.0;"/><path d="M165.2656,19.875 Q165.4219,19.6563 165.6094,19.5469 Q165.7969,19.4375 166.0156,19.4375 Q166.3906,19.4375 166.625,19.6953 Q166.8594,19.9531 166.8594,20.5625 L166.8594,22.0156 Q166.8594,22.625 166.625,22.8906 Q166.3906,23.1563 166.0156,23.1563 Q165.6719,23.1563 165.4688,22.9531 Q165.2656,22.7656 165.1563,22.25 Q165.1094,21.8906 164.9219,21.7031 Q164.5938,21.3281 163.9844,21.1094 Q163.375,20.8906 162.75,20.8906 Q161.9844,20.8906 161.3516,21.2188 Q160.7188,21.5469 160.2266,22.2969 Q159.7344,23.0469 159.7344,24.0781 L159.7344,25.1719 Q159.7344,26.4063 160.625,27.2266 Q161.5156,28.0469 163.1094,28.0469 Q164.0469,28.0469 164.7031,27.7969 Q165.0938,27.6406 165.5156,27.2031 Q165.7813,26.9375 165.9297,26.8594 Q166.0781,26.7813 166.2813,26.7813 Q166.6094,26.7813 166.8672,27.0391 Q167.125,27.2969 167.125,27.6406 Q167.125,27.9844 166.7813,28.3906 Q166.2813,28.9688 165.4844,29.2969 Q164.4063,29.75 163.1094,29.75 Q161.5938,29.75 160.3906,29.125 Q159.4063,28.625 158.7188,27.5547 Q158.0313,26.4844 158.0313,25.2031 L158.0313,24.0469 Q158.0313,22.7188 158.6484,21.5703 Q159.2656,20.4219 160.3594,19.8047 Q161.4531,19.1875 162.6875,19.1875 Q163.4219,19.1875 164.0703,19.3516 Q164.7188,19.5156 165.2656,19.875 Z "/><text fill="#000000" font-family="sans-serif" font-size="12" lengthAdjust="spacingAndGlyphs" textLength="85" x="176.5" y="28.9102">SaveResponse</text><line style="stroke: #A80036; stroke-width: 1.5;" x1="148.5" x2="263.5" y1="40" y2="40"/><text fill="#000000" font-family="sans-serif" font-size="11" lengthAdjust="spacingAndGlyphs" textLength="71" x="153.5" y="55.4189">success : bool</text><text fill="#000000" font-family="sans-serif" font-size="11" lengthAdjust="spacingAndGlyphs" textLength="61" x="153.5" y="69.2549">recipieID : int</text><line style="stroke: #A80036; stroke-width: 1.5;" x1="148.5" x2="263.5" y1="75.6719" y2="75.6719"/><!--
@startuml Save
class SaveRequest{
    recipie : Recipie
}

class SaveResponse{
    success : bool
    recipieID : int
}
@enduml

PlantUML version 1.2019.09(Mon Aug 26 12:19:51 EDT 2019)
(GPL source distribution)
Java Runtime: Java(TM) SE Runtime Environment
JVM: Java HotSpot(TM) 64-Bit Server VM
Java Version: 9.0.4+11
Operating System: Windows 10
OS Version: 10.0
Default Encoding: Cp1252
Language: en
Country: US
--></g></svg>