<?xml version="1.0" encoding="UTF-8" standalone="no"?><svg xmlns="http://www.w3.org/2000/svg" xmlns:xlink="http://www.w3.org/1999/xlink" contentScriptType="application/ecmascript" contentStyleType="text/css" height="543px" preserveAspectRatio="none" style="width:238px;height:543px;" version="1.1" viewBox="0 0 238 543" width="238px" zoomAndPan="magnify"><defs><filter height="300%" id="f76907azujx54" width="300%" x="-1" y="-1"><feGaussianBlur result="blurOut" stdDeviation="2.0"/><feColorMatrix in="blurOut" result="blurOut2" type="matrix" values="0 0 0 0 0 0 0 0 0 0 0 0 0 0 0 0 0 0 .4 0"/><feOffset dx="4.0" dy="4.0" in="blurOut2" result="blurOut3"/><feBlend in="SourceGraphic" in2="blurOut3" mode="normal"/></filter></defs><g><!--class USERS--><rect fill="#FEFECE" filter="url(#f76907azujx54)" height="75.6719" id="USERS" style="stroke: #A80036; stroke-width: 1.5;" width="157" x="13" y="8"/><ellipse cx="66.25" cy="24" fill="#ADD1B2" rx="11" ry="11" style="stroke: #A80036; stroke-width: 1.0;"/><path d="M65.1094,24.7969 L65.1094,27.2969 L69.4375,27.2969 L69.4375,26.375 Q69.4375,25.7656 69.6797,25.5 Q69.9219,25.2344 70.2969,25.2344 Q70.6719,25.2344 70.9063,25.5 Q71.1406,25.7656 71.1406,26.375 L71.1406,29 L63.1406,29 Q62.5156,29 62.2578,28.7656 Q62,28.5313 62,28.1406 Q62,27.7656 62.2656,27.5313 Q62.5313,27.2969 63.1406,27.2969 L63.4063,27.2969 L63.4063,20.6406 L63.1406,20.6406 Q62.5156,20.6406 62.2578,20.4063 Q62,20.1719 62,19.7813 Q62,19.4063 62.2578,19.1719 Q62.5156,18.9375 63.1406,18.9375 L70.7656,18.9375 L70.7656,21.5313 Q70.7656,22.1406 70.5391,22.3984 Q70.3125,22.6563 69.9219,22.6563 Q69.5469,22.6563 69.3125,22.3984 Q69.0781,22.1406 69.0781,21.5313 L69.0781,20.6406 L65.1094,20.6406 L65.1094,23.0938 L66.5938,23.0938 Q66.5938,22.4375 66.7188,22.25 Q66.9844,21.8438 67.4531,21.8438 Q67.8281,21.8438 68.0625,22.1016 Q68.2969,22.3594 68.2969,22.9688 L68.2969,24.9375 Q68.2969,25.4844 68.1719,25.6719 Q67.9063,26.0625 67.4531,26.0625 Q66.9844,26.0625 66.7188,25.6563 Q66.5938,25.4688 66.5938,24.7969 L65.1094,24.7969 Z "/><text fill="#000000" font-family="sans-serif" font-size="12" lengthAdjust="spacingAndGlyphs" textLength="42" x="86.75" y="28.9102">USERS</text><line style="stroke: #A80036; stroke-width: 1.5;" x1="14" x2="169" y1="40" y2="40"/><ellipse cx="24" cy="51" fill="#000000" rx="3" ry="3" style="stroke: #000000; stroke-width: 1.0;"/><text fill="#000000" font-family="sans-serif" font-size="11" lengthAdjust="spacingAndGlyphs" textLength="131" x="33" y="55.4189">USERNAME VARCHAR(30)</text><text fill="#000000" font-family="sans-serif" font-size="11" lengthAdjust="spacingAndGlyphs" textLength="93" x="33" y="69.2549">P_HASH CHAR(32)</text><line style="stroke: #A80036; stroke-width: 1.5;" x1="14" x2="169" y1="75.6719" y2="75.6719"/><!--class RECIPES--><rect fill="#FEFECE" filter="url(#f76907azujx54)" height="117.1797" id="RECIPES" style="stroke: #A80036; stroke-width: 1.5;" width="171" x="6" y="144"/><ellipse cx="60.75" cy="160" fill="#ADD1B2" rx="11" ry="11" style="stroke: #A80036; stroke-width: 1.0;"/><path d="M59.6094,160.7969 L59.6094,163.2969 L63.9375,163.2969 L63.9375,162.375 Q63.9375,161.7656 64.1797,161.5 Q64.4219,161.2344 64.7969,161.2344 Q65.1719,161.2344 65.4063,161.5 Q65.6406,161.7656 65.6406,162.375 L65.6406,165 L57.6406,165 Q57.0156,165 56.7578,164.7656 Q56.5,164.5313 56.5,164.1406 Q56.5,163.7656 56.7656,163.5313 Q57.0313,163.2969 57.6406,163.2969 L57.9063,163.2969 L57.9063,156.6406 L57.6406,156.6406 Q57.0156,156.6406 56.7578,156.4063 Q56.5,156.1719 56.5,155.7813 Q56.5,155.4063 56.7578,155.1719 Q57.0156,154.9375 57.6406,154.9375 L65.2656,154.9375 L65.2656,157.5313 Q65.2656,158.1406 65.0391,158.3984 Q64.8125,158.6563 64.4219,158.6563 Q64.0469,158.6563 63.8125,158.3984 Q63.5781,158.1406 63.5781,157.5313 L63.5781,156.6406 L59.6094,156.6406 L59.6094,159.0938 L61.0938,159.0938 Q61.0938,158.4375 61.2188,158.25 Q61.4844,157.8438 61.9531,157.8438 Q62.3281,157.8438 62.5625,158.1016 Q62.7969,158.3594 62.7969,158.9688 L62.7969,160.9375 Q62.7969,161.4844 62.6719,161.6719 Q62.4063,162.0625 61.9531,162.0625 Q61.4844,162.0625 61.2188,161.6563 Q61.0938,161.4688 61.0938,160.7969 L59.6094,160.7969 Z "/><text fill="#000000" font-family="sans-serif" font-size="12" lengthAdjust="spacingAndGlyphs" textLength="53" x="81.25" y="164.9102">RECIPES</text><line style="stroke: #A80036; stroke-width: 1.5;" x1="7" x2="176" y1="176" y2="176"/><ellipse cx="17" cy="187" fill="#000000" rx="3" ry="3" style="stroke: #000000; stroke-width: 1.0;"/><text fill="#000000" font-family="sans-serif" font-size="11" lengthAdjust="spacingAndGlyphs" textLength="54" x="26" y="191.4189">ID INTEGER</text><text fill="#000000" font-family="sans-serif" font-size="11" lengthAdjust="spacingAndGlyphs" textLength="134" x="26" y="205.2549">AUTHOR VARCHAR(30) FK</text><text fill="#000000" font-family="sans-serif" font-size="11" lengthAdjust="spacingAndGlyphs" textLength="144" x="26" y="219.0908">RECIPE_NAME VARCHAR(30)</text><text fill="#000000" font-family="sans-serif" font-size="11" lengthAdjust="spacingAndGlyphs" textLength="145" x="26" y="232.9268">RECIPE_DESCRIPTION STRING</text><text fill="#000000" font-family="sans-serif" font-size="11" lengthAdjust="spacingAndGlyphs" textLength="110" x="26" y="246.7627">RECIPE_BODY STRING</text><line style="stroke: #A80036; stroke-width: 1.5;" x1="7" x2="176" y1="253.1797" y2="253.1797"/><!--class RECIPE_INGREDIANTS--><rect fill="#FEFECE" filter="url(#f76907azujx54)" height="75.6719" id="RECIPE_INGREDIANTS" style="stroke: #A80036; stroke-width: 1.5;" width="169" x="7" y="457"/><ellipse cx="23.8" cy="473" fill="#ADD1B2" rx="11" ry="11" style="stroke: #A80036; stroke-width: 1.0;"/><path d="M22.6594,473.7969 L22.6594,476.2969 L26.9875,476.2969 L26.9875,475.375 Q26.9875,474.7656 27.2297,474.5 Q27.4719,474.2344 27.8469,474.2344 Q28.2219,474.2344 28.4563,474.5 Q28.6906,474.7656 28.6906,475.375 L28.6906,478 L20.6906,478 Q20.0656,478 19.8078,477.7656 Q19.55,477.5313 19.55,477.1406 Q19.55,476.7656 19.8156,476.5313 Q20.0813,476.2969 20.6906,476.2969 L20.9563,476.2969 L20.9563,469.6406 L20.6906,469.6406 Q20.0656,469.6406 19.8078,469.4063 Q19.55,469.1719 19.55,468.7813 Q19.55,468.4063 19.8078,468.1719 Q20.0656,467.9375 20.6906,467.9375 L28.3156,467.9375 L28.3156,470.5313 Q28.3156,471.1406 28.0891,471.3984 Q27.8625,471.6563 27.4719,471.6563 Q27.0969,471.6563 26.8625,471.3984 Q26.6281,471.1406 26.6281,470.5313 L26.6281,469.6406 L22.6594,469.6406 L22.6594,472.0938 L24.1438,472.0938 Q24.1438,471.4375 24.2688,471.25 Q24.5344,470.8438 25.0031,470.8438 Q25.3781,470.8438 25.6125,471.1016 Q25.8469,471.3594 25.8469,471.9688 L25.8469,473.9375 Q25.8469,474.4844 25.7219,474.6719 Q25.4563,475.0625 25.0031,475.0625 Q24.5344,475.0625 24.2688,474.6563 Q24.1438,474.4688 24.1438,473.7969 L22.6594,473.7969 Z "/><text fill="#000000" font-family="sans-serif" font-size="12" lengthAdjust="spacingAndGlyphs" textLength="133" x="38.2" y="477.9102">RECIPE_INGREDIANTS</text><line style="stroke: #A80036; stroke-width: 1.5;" x1="8" x2="175" y1="489" y2="489"/><ellipse cx="18" cy="500" fill="#000000" rx="3" ry="3" style="stroke: #000000; stroke-width: 1.0;"/><text fill="#000000" font-family="sans-serif" font-size="11" lengthAdjust="spacingAndGlyphs" textLength="110" x="27" y="504.4189">RECIPE_ID INTEGER FK</text><ellipse cx="18" cy="513.8359" fill="#000000" rx="3" ry="3" style="stroke: #000000; stroke-width: 1.0;"/><text fill="#000000" font-family="sans-serif" font-size="11" lengthAdjust="spacingAndGlyphs" textLength="143" x="27" y="518.2549">INGREDIANT_ID INTERGER FK</text><line style="stroke: #A80036; stroke-width: 1.5;" x1="8" x2="175" y1="524.6719" y2="524.6719"/><!--class INGREDIANTS--><rect fill="#FEFECE" filter="url(#f76907azujx54)" height="75.6719" id="INGREDIANTS" style="stroke: #A80036; stroke-width: 1.5;" width="146" x="81.5" y="321"/><ellipse cx="111.35" cy="337" fill="#ADD1B2" rx="11" ry="11" style="stroke: #A80036; stroke-width: 1.0;"/><path d="M110.2094,337.7969 L110.2094,340.2969 L114.5375,340.2969 L114.5375,339.375 Q114.5375,338.7656 114.7797,338.5 Q115.0219,338.2344 115.3969,338.2344 Q115.7719,338.2344 116.0063,338.5 Q116.2406,338.7656 116.2406,339.375 L116.2406,342 L108.2406,342 Q107.6156,342 107.3578,341.7656 Q107.1,341.5313 107.1,341.1406 Q107.1,340.7656 107.3656,340.5313 Q107.6313,340.2969 108.2406,340.2969 L108.5063,340.2969 L108.5063,333.6406 L108.2406,333.6406 Q107.6156,333.6406 107.3578,333.4063 Q107.1,333.1719 107.1,332.7813 Q107.1,332.4063 107.3578,332.1719 Q107.6156,331.9375 108.2406,331.9375 L115.8656,331.9375 L115.8656,334.5313 Q115.8656,335.1406 115.6391,335.3984 Q115.4125,335.6563 115.0219,335.6563 Q114.6469,335.6563 114.4125,335.3984 Q114.1781,335.1406 114.1781,334.5313 L114.1781,333.6406 L110.2094,333.6406 L110.2094,336.0938 L111.6938,336.0938 Q111.6938,335.4375 111.8188,335.25 Q112.0844,334.8438 112.5531,334.8438 Q112.9281,334.8438 113.1625,335.1016 Q113.3969,335.3594 113.3969,335.9688 L113.3969,337.9375 Q113.3969,338.4844 113.2719,338.6719 Q113.0063,339.0625 112.5531,339.0625 Q112.0844,339.0625 111.8188,338.6563 Q111.6938,338.4688 111.6938,337.7969 L110.2094,337.7969 Z "/><text fill="#000000" font-family="sans-serif" font-size="12" lengthAdjust="spacingAndGlyphs" textLength="81" x="128.65" y="341.9102">INGREDIANTS</text><line style="stroke: #A80036; stroke-width: 1.5;" x1="82.5" x2="226.5" y1="353" y2="353"/><ellipse cx="92.5" cy="364" fill="#000000" rx="3" ry="3" style="stroke: #000000; stroke-width: 1.0;"/><text fill="#000000" font-family="sans-serif" font-size="11" lengthAdjust="spacingAndGlyphs" textLength="120" x="101.5" y="368.4189">INGREDIANT_ID INTEGER</text><text fill="#000000" font-family="sans-serif" font-size="11" lengthAdjust="spacingAndGlyphs" textLength="69" x="101.5" y="382.2549">NAME STRING</text><line style="stroke: #A80036; stroke-width: 1.5;" x1="82.5" x2="226.5" y1="388.6719" y2="388.6719"/><!--link USERS to RECIPES--><path d="M91.5,92.243 C91.5,105.9 91.5,121.177 91.5,135.879 " fill="none" id="USERS-RECIPES" style="stroke: #A80036; stroke-width: 1.0;"/><line style="stroke: #A80036; stroke-width: 1.0;" x1="91.5" x2="97.5" y1="135.974" y2="143.974"/><line style="stroke: #A80036; stroke-width: 1.0;" x1="91.5" x2="85.5" y1="135.974" y2="143.974"/><line style="stroke: #A80036; stroke-width: 1.0;" x1="91.5" x2="91.5" y1="135.974" y2="143.974"/><line style="stroke: #A80036; stroke-width: 1.0;" x1="95.5" x2="87.5" y1="133.974" y2="133.974"/><line style="stroke: #A80036; stroke-width: 1.0;" x1="87.5" x2="95.5" y1="88.007" y2="88.007"/><line style="stroke: #A80036; stroke-width: 1.0;" x1="87.5" x2="95.5" y1="91.007" y2="91.007"/><line style="stroke: #A80036; stroke-width: 1.0;" x1="91.5" x2="91.5" y1="92.007" y2="84.007"/><!--link RECIPES to INGREDIANTS--><path d="M118.034,268.571 C124.139,283.544 130.501,299.144 136.168,313.043 " fill="none" id="RECIPES-INGREDIANTS" style="stroke: #A80036; stroke-width: 1.0;"/><line style="stroke: #A80036; stroke-width: 1.0;" x1="136.2174" x2="144.7946" y1="313.1676" y2="318.3088"/><line style="stroke: #A80036; stroke-width: 1.0;" x1="136.2174" x2="133.6834" y1="313.1676" y2="322.8412"/><line style="stroke: #A80036; stroke-width: 1.0;" x1="136.2174" x2="139.239" y1="313.1676" y2="320.575"/><line style="stroke: #A80036; stroke-width: 1.0;" x1="139.1658" x2="131.7583" y1="309.8049" y2="312.8265"/><line style="stroke: #A80036; stroke-width: 1.0;" x1="117.9793" x2="109.403" y1="268.4379" y2="263.2952"/><line style="stroke: #A80036; stroke-width: 1.0;" x1="117.9793" x2="120.515" y1="268.4379" y2="258.7648"/><line style="stroke: #A80036; stroke-width: 1.0;" x1="117.9793" x2="114.959" y1="268.4379" y2="261.03"/><line style="stroke: #A80036; stroke-width: 1.0;" x1="115.0304" x2="122.4384" y1="271.8001" y2="268.7798"/><!--link RECIPES to RECIPE_INGREDIANTS--><path d="M72.9451,269.374 C69.0317,286.079 65.4875,304.086 63.5,321 C59.5581,354.547 58.7695,363.555 63.5,397 C65.9471,414.301 70.7341,432.836 75.6677,449.0215 " fill="none" id="RECIPES-RECIPE_INGREDIANTS" style="stroke: #A80036; stroke-width: 1.0;"/><line style="stroke: #A80036; stroke-width: 1.0;" x1="75.7011" x2="83.8176" y1="449.128" y2="454.9694"/><line style="stroke: #A80036; stroke-width: 1.0;" x1="75.7011" x2="72.366" y1="449.128" y2="458.5554"/><line style="stroke: #A80036; stroke-width: 1.0;" x1="75.7011" x2="78.0918" y1="449.128" y2="456.7624"/><line style="stroke: #A80036; stroke-width: 1.0;" x1="78.9206" x2="71.2862" y1="446.024" y2="448.4147"/><line style="stroke: #A80036; stroke-width: 1.0;" x1="70.0659" x2="77.8439" y1="264.2413" y2="266.1127"/><line style="stroke: #A80036; stroke-width: 1.0;" x1="69.3641" x2="77.1421" y1="267.1581" y2="269.0295"/><line style="stroke: #A80036; stroke-width: 1.0;" x1="73.0192" x2="74.8906" y1="269.066" y2="261.288"/><!--link INGREDIANTS to RECIPE_INGREDIANTS--><path d="M133.383,404.916 C126.625,419.29 119.149,435.1905 112.406,449.5323 " fill="none" id="INGREDIANTS-RECIPE_INGREDIANTS" style="stroke: #A80036; stroke-width: 1.0;"/><line style="stroke: #A80036; stroke-width: 1.0;" x1="112.3588" x2="114.3848" y1="449.6339" y2="459.4265"/><line style="stroke: #A80036; stroke-width: 1.0;" x1="112.3588" x2="103.5252" y1="449.6339" y2="454.3209"/><line style="stroke: #A80036; stroke-width: 1.0;" x1="112.3588" x2="108.955" y1="449.6339" y2="456.8737"/><line style="stroke: #A80036; stroke-width: 1.0;" x1="116.8296" x2="109.5898" y1="449.5258" y2="446.1221"/><line style="stroke: #A80036; stroke-width: 1.0;" x1="131.6291" x2="138.8688" y1="399.2438" y2="402.6479"/><line style="stroke: #A80036; stroke-width: 1.0;" x1="130.3526" x2="137.5922" y1="401.9586" y2="405.3627"/><line style="stroke: #A80036; stroke-width: 1.0;" x1="133.5469" x2="136.951" y1="404.5656" y2="397.326"/><!--
@startuml

entity USERS {
    * USERNAME VARCHAR(30)
    P_HASH CHAR(32)
}

entity RECIPES{
    * ID INTEGER
    AUTHOR VARCHAR(30) FK
    RECIPE_NAME VARCHAR(30)
    RECIPE_DESCRIPTION STRING
    RECIPE_BODY STRING
}

entity RECIPE_INGREDIANTS{
 * RECIPE_ID INTEGER FK
 * INGREDIANT_ID INTERGER FK
}

entity INGREDIANTS{
    * INGREDIANT_ID INTEGER
    NAME STRING
}

USERS ||- -|{ RECIPES
RECIPES }|- -|{ INGREDIANTS
RECIPES ||- -|{ RECIPE_INGREDIANTS
INGREDIANTS ||- -|{ RECIPE_INGREDIANTS

@enduml

PlantUML version 1.2019.09(Mon Aug 26 12:19:51 EDT 2019)
(GPL source distribution)
Java Runtime: Java(TM) SE Runtime Environment
JVM: Java HotSpot(TM) 64-Bit Server VM
Java Version: 1.8.0_221-b11
Operating System: Windows 10
OS Version: 10.0
Default Encoding: Cp1252
Language: en
Country: US
--></g></svg>