<?xml version="1.0" encoding="UTF-8" standalone="no"?><svg xmlns="http://www.w3.org/2000/svg" xmlns:xlink="http://www.w3.org/1999/xlink" contentScriptType="application/ecmascript" contentStyleType="text/css" height="543px" preserveAspectRatio="none" style="width:245px;height:543px;" version="1.1" viewBox="0 0 245 543" width="245px" zoomAndPan="magnify"><defs><filter height="300%" id="f1um9pyno0wpzx" width="300%" x="-1" y="-1"><feGaussianBlur result="blurOut" stdDeviation="2.0"/><feColorMatrix in="blurOut" result="blurOut2" type="matrix" values="0 0 0 0 0 0 0 0 0 0 0 0 0 0 0 0 0 0 .4 0"/><feOffset dx="4.0" dy="4.0" in="blurOut2" result="blurOut3"/><feBlend in="SourceGraphic" in2="blurOut3" mode="normal"/></filter></defs><g><!--class USERS--><rect fill="#FEFECE" filter="url(#f1um9pyno0wpzx)" height="75.6719" id="USERS" style="stroke: #A80036; stroke-width: 1.5;" width="163" x="12" y="8"/><ellipse cx="68.25" cy="24" fill="#ADD1B2" rx="11" ry="11" style="stroke: #A80036; stroke-width: 1.0;"/><path d="M67.1094,24.7969 L67.1094,27.2969 L71.4375,27.2969 L71.4375,26.375 Q71.4375,25.7656 71.6797,25.5 Q71.9219,25.2344 72.2969,25.2344 Q72.6719,25.2344 72.9063,25.5 Q73.1406,25.7656 73.1406,26.375 L73.1406,29 L65.1406,29 Q64.5156,29 64.2578,28.7656 Q64,28.5313 64,28.1406 Q64,27.7656 64.2656,27.5313 Q64.5313,27.2969 65.1406,27.2969 L65.4063,27.2969 L65.4063,20.6406 L65.1406,20.6406 Q64.5156,20.6406 64.2578,20.4063 Q64,20.1719 64,19.7813 Q64,19.4063 64.2578,19.1719 Q64.5156,18.9375 65.1406,18.9375 L72.7656,18.9375 L72.7656,21.5313 Q72.7656,22.1406 72.5391,22.3984 Q72.3125,22.6563 71.9219,22.6563 Q71.5469,22.6563 71.3125,22.3984 Q71.0781,22.1406 71.0781,21.5313 L71.0781,20.6406 L67.1094,20.6406 L67.1094,23.0938 L68.5938,23.0938 Q68.5938,22.4375 68.7188,22.25 Q68.9844,21.8438 69.4531,21.8438 Q69.8281,21.8438 70.0625,22.1016 Q70.2969,22.3594 70.2969,22.9688 L70.2969,24.9375 Q70.2969,25.4844 70.1719,25.6719 Q69.9063,26.0625 69.4531,26.0625 Q68.9844,26.0625 68.7188,25.6563 Q68.5938,25.4688 68.5938,24.7969 L67.1094,24.7969 Z "/><text fill="#000000" font-family="sans-serif" font-size="12" lengthAdjust="spacingAndGlyphs" textLength="42" x="88.75" y="28.9102">USERS</text><line style="stroke: #A80036; stroke-width: 1.5;" x1="13" x2="174" y1="40" y2="40"/><ellipse cx="23" cy="51" fill="#000000" rx="3" ry="3" style="stroke: #000000; stroke-width: 1.0;"/><text fill="#000000" font-family="sans-serif" font-size="11" lengthAdjust="spacingAndGlyphs" textLength="137" x="32" y="55.4189">USERNAME : VARCHAR(30)</text><text fill="#000000" font-family="sans-serif" font-size="11" lengthAdjust="spacingAndGlyphs" textLength="99" x="32" y="69.2549">P_HASH : CHAR(32)</text><line style="stroke: #A80036; stroke-width: 1.5;" x1="13" x2="174" y1="75.6719" y2="75.6719"/><!--class RECIPES--><rect fill="#FEFECE" filter="url(#f1um9pyno0wpzx)" height="117.1797" id="RECIPES" style="stroke: #A80036; stroke-width: 1.5;" width="166" x="10.5" y="144"/><ellipse cx="62.75" cy="160" fill="#ADD1B2" rx="11" ry="11" style="stroke: #A80036; stroke-width: 1.0;"/><path d="M61.6094,160.7969 L61.6094,163.2969 L65.9375,163.2969 L65.9375,162.375 Q65.9375,161.7656 66.1797,161.5 Q66.4219,161.2344 66.7969,161.2344 Q67.1719,161.2344 67.4063,161.5 Q67.6406,161.7656 67.6406,162.375 L67.6406,165 L59.6406,165 Q59.0156,165 58.7578,164.7656 Q58.5,164.5313 58.5,164.1406 Q58.5,163.7656 58.7656,163.5313 Q59.0313,163.2969 59.6406,163.2969 L59.9063,163.2969 L59.9063,156.6406 L59.6406,156.6406 Q59.0156,156.6406 58.7578,156.4063 Q58.5,156.1719 58.5,155.7813 Q58.5,155.4063 58.7578,155.1719 Q59.0156,154.9375 59.6406,154.9375 L67.2656,154.9375 L67.2656,157.5313 Q67.2656,158.1406 67.0391,158.3984 Q66.8125,158.6563 66.4219,158.6563 Q66.0469,158.6563 65.8125,158.3984 Q65.5781,158.1406 65.5781,157.5313 L65.5781,156.6406 L61.6094,156.6406 L61.6094,159.0938 L63.0938,159.0938 Q63.0938,158.4375 63.2188,158.25 Q63.4844,157.8438 63.9531,157.8438 Q64.3281,157.8438 64.5625,158.1016 Q64.7969,158.3594 64.7969,158.9688 L64.7969,160.9375 Q64.7969,161.4844 64.6719,161.6719 Q64.4063,162.0625 63.9531,162.0625 Q63.4844,162.0625 63.2188,161.6563 Q63.0938,161.4688 63.0938,160.7969 L61.6094,160.7969 Z "/><text fill="#000000" font-family="sans-serif" font-size="12" lengthAdjust="spacingAndGlyphs" textLength="53" x="83.25" y="164.9102">RECIPES</text><line style="stroke: #A80036; stroke-width: 1.5;" x1="11.5" x2="175.5" y1="176" y2="176"/><ellipse cx="21.5" cy="187" fill="#000000" rx="3" ry="3" style="stroke: #000000; stroke-width: 1.0;"/><text fill="#000000" font-family="sans-serif" font-size="11" lengthAdjust="spacingAndGlyphs" textLength="60" x="30.5" y="191.4189">ID : INTEGER</text><text fill="#000000" font-family="sans-serif" font-size="11" lengthAdjust="spacingAndGlyphs" textLength="140" x="30.5" y="205.2549">AUTHOR : VARCHAR(30) FK</text><text fill="#000000" font-family="sans-serif" font-size="11" lengthAdjust="spacingAndGlyphs" textLength="110" x="30.5" y="219.0908">NAME : VARCHAR(30)</text><text fill="#000000" font-family="sans-serif" font-size="11" lengthAdjust="spacingAndGlyphs" textLength="111" x="30.5" y="232.9268">DESCRIPTION : STRING</text><text fill="#000000" font-family="sans-serif" font-size="11" lengthAdjust="spacingAndGlyphs" textLength="76" x="30.5" y="246.7627">BODY : STRING</text><line style="stroke: #A80036; stroke-width: 1.5;" x1="11.5" x2="175.5" y1="253.1797" y2="253.1797"/><!--class RECIPE_INGREDIANTS--><rect fill="#FEFECE" filter="url(#f1um9pyno0wpzx)" height="75.6719" id="RECIPE_INGREDIANTS" style="stroke: #A80036; stroke-width: 1.5;" width="175" x="6" y="457"/><ellipse cx="25.5" cy="473" fill="#ADD1B2" rx="11" ry="11" style="stroke: #A80036; stroke-width: 1.0;"/><path d="M24.3594,473.7969 L24.3594,476.2969 L28.6875,476.2969 L28.6875,475.375 Q28.6875,474.7656 28.9297,474.5 Q29.1719,474.2344 29.5469,474.2344 Q29.9219,474.2344 30.1563,474.5 Q30.3906,474.7656 30.3906,475.375 L30.3906,478 L22.3906,478 Q21.7656,478 21.5078,477.7656 Q21.25,477.5313 21.25,477.1406 Q21.25,476.7656 21.5156,476.5313 Q21.7813,476.2969 22.3906,476.2969 L22.6563,476.2969 L22.6563,469.6406 L22.3906,469.6406 Q21.7656,469.6406 21.5078,469.4063 Q21.25,469.1719 21.25,468.7813 Q21.25,468.4063 21.5078,468.1719 Q21.7656,467.9375 22.3906,467.9375 L30.0156,467.9375 L30.0156,470.5313 Q30.0156,471.1406 29.7891,471.3984 Q29.5625,471.6563 29.1719,471.6563 Q28.7969,471.6563 28.5625,471.3984 Q28.3281,471.1406 28.3281,470.5313 L28.3281,469.6406 L24.3594,469.6406 L24.3594,472.0938 L25.8438,472.0938 Q25.8438,471.4375 25.9688,471.25 Q26.2344,470.8438 26.7031,470.8438 Q27.0781,470.8438 27.3125,471.1016 Q27.5469,471.3594 27.5469,471.9688 L27.5469,473.9375 Q27.5469,474.4844 27.4219,474.6719 Q27.1563,475.0625 26.7031,475.0625 Q26.2344,475.0625 25.9688,474.6563 Q25.8438,474.4688 25.8438,473.7969 L24.3594,473.7969 Z "/><text fill="#000000" font-family="sans-serif" font-size="12" lengthAdjust="spacingAndGlyphs" textLength="133" x="40.5" y="477.9102">RECIPE_INGREDIANTS</text><line style="stroke: #A80036; stroke-width: 1.5;" x1="7" x2="180" y1="489" y2="489"/><ellipse cx="17" cy="500" fill="#000000" rx="3" ry="3" style="stroke: #000000; stroke-width: 1.0;"/><text fill="#000000" font-family="sans-serif" font-size="11" lengthAdjust="spacingAndGlyphs" textLength="116" x="26" y="504.4189">RECIPE_ID : INTEGER FK</text><ellipse cx="17" cy="513.8359" fill="#000000" rx="3" ry="3" style="stroke: #000000; stroke-width: 1.0;"/><text fill="#000000" font-family="sans-serif" font-size="11" lengthAdjust="spacingAndGlyphs" textLength="149" x="26" y="518.2549">INGREDIANT_ID : INTERGER FK</text><line style="stroke: #A80036; stroke-width: 1.5;" x1="7" x2="180" y1="524.6719" y2="524.6719"/><!--class INGREDIANTS--><rect fill="#FEFECE" filter="url(#f1um9pyno0wpzx)" height="75.6719" id="INGREDIANTS" style="stroke: #A80036; stroke-width: 1.5;" width="152" x="82.5" y="321"/><ellipse cx="115.05" cy="337" fill="#ADD1B2" rx="11" ry="11" style="stroke: #A80036; stroke-width: 1.0;"/><path d="M113.9094,337.7969 L113.9094,340.2969 L118.2375,340.2969 L118.2375,339.375 Q118.2375,338.7656 118.4797,338.5 Q118.7219,338.2344 119.0969,338.2344 Q119.4719,338.2344 119.7063,338.5 Q119.9406,338.7656 119.9406,339.375 L119.9406,342 L111.9406,342 Q111.3156,342 111.0578,341.7656 Q110.8,341.5313 110.8,341.1406 Q110.8,340.7656 111.0656,340.5313 Q111.3313,340.2969 111.9406,340.2969 L112.2063,340.2969 L112.2063,333.6406 L111.9406,333.6406 Q111.3156,333.6406 111.0578,333.4063 Q110.8,333.1719 110.8,332.7813 Q110.8,332.4063 111.0578,332.1719 Q111.3156,331.9375 111.9406,331.9375 L119.5656,331.9375 L119.5656,334.5313 Q119.5656,335.1406 119.3391,335.3984 Q119.1125,335.6563 118.7219,335.6563 Q118.3469,335.6563 118.1125,335.3984 Q117.8781,335.1406 117.8781,334.5313 L117.8781,333.6406 L113.9094,333.6406 L113.9094,336.0938 L115.3938,336.0938 Q115.3938,335.4375 115.5188,335.25 Q115.7844,334.8438 116.2531,334.8438 Q116.6281,334.8438 116.8625,335.1016 Q117.0969,335.3594 117.0969,335.9688 L117.0969,337.9375 Q117.0969,338.4844 116.9719,338.6719 Q116.7063,339.0625 116.2531,339.0625 Q115.7844,339.0625 115.5188,338.6563 Q115.3938,338.4688 115.3938,337.7969 L113.9094,337.7969 Z "/><text fill="#000000" font-family="sans-serif" font-size="12" lengthAdjust="spacingAndGlyphs" textLength="81" x="132.95" y="341.9102">INGREDIANTS</text><line style="stroke: #A80036; stroke-width: 1.5;" x1="83.5" x2="233.5" y1="353" y2="353"/><ellipse cx="93.5" cy="364" fill="#000000" rx="3" ry="3" style="stroke: #000000; stroke-width: 1.0;"/><text fill="#000000" font-family="sans-serif" font-size="11" lengthAdjust="spacingAndGlyphs" textLength="126" x="102.5" y="368.4189">INGREDIANT_ID : INTEGER</text><text fill="#000000" font-family="sans-serif" font-size="11" lengthAdjust="spacingAndGlyphs" textLength="75" x="102.5" y="382.2549">NAME : STRING</text><line style="stroke: #A80036; stroke-width: 1.5;" x1="83.5" x2="233.5" y1="388.6719" y2="388.6719"/><!--link USERS to RECIPES--><path d="M93.5,92.243 C93.5,105.9 93.5,121.177 93.5,135.879 " fill="none" id="USERS-RECIPES" style="stroke: #A80036; stroke-width: 1.0;"/><line style="stroke: #A80036; stroke-width: 1.0;" x1="93.5" x2="99.5" y1="135.974" y2="143.974"/><line style="stroke: #A80036; stroke-width: 1.0;" x1="93.5" x2="87.5" y1="135.974" y2="143.974"/><line style="stroke: #A80036; stroke-width: 1.0;" x1="93.5" x2="93.5" y1="135.974" y2="143.974"/><line style="stroke: #A80036; stroke-width: 1.0;" x1="97.5" x2="89.5" y1="133.974" y2="133.974"/><line style="stroke: #A80036; stroke-width: 1.0;" x1="89.5" x2="97.5" y1="88.007" y2="88.007"/><line style="stroke: #A80036; stroke-width: 1.0;" x1="89.5" x2="97.5" y1="91.007" y2="91.007"/><line style="stroke: #A80036; stroke-width: 1.0;" x1="93.5" x2="93.5" y1="92.007" y2="84.007"/><!--link RECIPES to INGREDIANTS--><path d="M120.876,268.571 C127.176,283.544 133.739,299.144 139.586,313.043 " fill="none" id="RECIPES-INGREDIANTS" style="stroke: #A80036; stroke-width: 1.0;"/><line style="stroke: #A80036; stroke-width: 1.0;" x1="139.6518" x2="148.2852" y1="313.2014" y2="318.2476"/><line style="stroke: #A80036; stroke-width: 1.0;" x1="139.6518" x2="137.2248" y1="313.2014" y2="322.9024"/><line style="stroke: #A80036; stroke-width: 1.0;" x1="139.6518" x2="142.755" y1="313.2014" y2="320.575"/><line style="stroke: #A80036; stroke-width: 1.0;" x1="142.5628" x2="135.1892" y1="309.8064" y2="312.9096"/><line style="stroke: #A80036; stroke-width: 1.0;" x1="120.8067" x2="112.1736" y1="268.4038" y2="263.357"/><line style="stroke: #A80036; stroke-width: 1.0;" x1="120.8067" x2="123.2344" y1="268.4038" y2="258.703"/><line style="stroke: #A80036; stroke-width: 1.0;" x1="120.8067" x2="117.704" y1="268.4038" y2="261.03"/><line style="stroke: #A80036; stroke-width: 1.0;" x1="117.8954" x2="125.2693" y1="271.7986" y2="268.696"/><!--link RECIPES to RECIPE_INGREDIANTS--><path d="M74.2838,269.339 C70.2306,286.045 66.5594,304.061 64.5,321 C60.4233,354.531 59.6108,363.578 64.5,397 C67.0362,414.337 71.9946,432.881 77.1042,449.0622 " fill="none" id="RECIPES-RECIPE_INGREDIANTS" style="stroke: #A80036; stroke-width: 1.0;"/><line style="stroke: #A80036; stroke-width: 1.0;" x1="77.146" x2="85.3219" y1="449.1909" y2="454.9488"/><line style="stroke: #A80036; stroke-width: 1.0;" x1="77.146" x2="73.9077" y1="449.1909" y2="458.652"/><line style="stroke: #A80036; stroke-width: 1.0;" x1="77.146" x2="79.6148" y1="449.1909" y2="456.8004"/><line style="stroke: #A80036; stroke-width: 1.0;" x1="80.3335" x2="72.724" y1="446.0541" y2="448.5229"/><line style="stroke: #A80036; stroke-width: 1.0;" x1="71.4498" x2="79.2121" y1="264.1673" y2="266.103"/><line style="stroke: #A80036; stroke-width: 1.0;" x1="70.724" x2="78.4863" y1="267.0782" y2="269.0138"/><line style="stroke: #A80036; stroke-width: 1.0;" x1="74.3632" x2="76.2988" y1="269.0163" y2="261.254"/><!--link INGREDIANTS to RECIPE_INGREDIANTS--><path d="M136.712,404.916 C129.74,419.29 122.027,435.1905 115.07,449.5323 " fill="none" id="INGREDIANTS-RECIPE_INGREDIANTS" style="stroke: #A80036; stroke-width: 1.0;"/><line style="stroke: #A80036; stroke-width: 1.0;" x1="115.0003" x2="116.9075" y1="449.6757" y2="459.4922"/><line style="stroke: #A80036; stroke-width: 1.0;" x1="115.0003" x2="106.1105" y1="449.6757" y2="454.2552"/><line style="stroke: #A80036; stroke-width: 1.0;" x1="115.0003" x2="111.509" y1="449.6757" y2="456.8737"/><line style="stroke: #A80036; stroke-width: 1.0;" x1="119.4721" x2="112.2741" y1="449.6219" y2="446.1306"/><line style="stroke: #A80036; stroke-width: 1.0;" x1="135.0494" x2="142.2474" y1="399.1794" y2="402.6706"/><line style="stroke: #A80036; stroke-width: 1.0;" x1="133.7402" x2="140.9382" y1="401.8787" y2="405.3699"/><line style="stroke: #A80036; stroke-width: 1.0;" x1="136.9028" x2="140.394" y1="404.524" y2="397.326"/><!--
@startuml

entity USERS {
    * USERNAME : VARCHAR(30)
    P_HASH : CHAR(32)
}

entity RECIPES{
    * ID : INTEGER
    AUTHOR : VARCHAR(30) FK
    NAME : VARCHAR(30)
    DESCRIPTION : STRING
    BODY : STRING
}

entity RECIPE_INGREDIANTS{
 * RECIPE_ID : INTEGER FK
 * INGREDIANT_ID : INTERGER FK
}

entity INGREDIANTS{
    * INGREDIANT_ID : INTEGER
    NAME : STRING
}

USERS ||- -|{ RECIPES
RECIPES }|- -|{ INGREDIANTS
RECIPES ||- -|{ RECIPE_INGREDIANTS
INGREDIANTS ||- -|{ RECIPE_INGREDIANTS

@enduml

PlantUML version 1.2019.09(Mon Aug 26 12:19:51 EDT 2019)
(GPL source distribution)
Java Runtime: Java(TM) SE Runtime Environment
JVM: Java HotSpot(TM) 64-Bit Server VM
Java Version: 1.8.0_221-b11
Operating System: Windows 10
OS Version: 10.0
Default Encoding: Cp1252
Language: en
Country: US
--></g></svg>